<?xml version="1.0" encoding="UTF-8"?>
<svg id="Layer_2" data-name="Layer 2" xmlns="http://www.w3.org/2000/svg" viewBox="0 0 1590.24 560.1">
  <defs>
    <style>
      .cls-1 {
        fill: #decfab;
      }
    </style>
  </defs>
  <g id="Layer_1-2" data-name="Layer 1">
    <g>
      <path class="cls-1" d="M696.48,290.88c-13.94,14.09-29.71,30.1-47.16,39.83-14.46,8.06-34.68,15.65-46.32-.85l-5.25-12.53c-2.37,8.2-6.26,15.86-9.19,23.87-2.63,7.17-14.83,48.32-17.71,50.42-5.95,4.32-11.81-2.12-9.74-8.69l19.33-94.07c-1.64-.37-2.08.56-3.08,1.49-18.91,17.54-37.94,50.41-68.59,46.2-14.14-1.94-20.3-18.32-22.48-30.41-14.14,21.23-27.8,48.74-48.44,64.47-12.06,9.19-25.5,7.74-27.4-9.06-3.88-34.42,14.44-76.14,22.39-109.3-6.77,2.89-12.78,7.62-19.66,10.35-9.55,3.78-16.94,5.33-27,1.98-15.67,21.92-34.75,46.95-56.82,62.74-16.84,12.04-39.32,15.84-49.39-6.24-12.59-27.6,7.69-86.51,26.69-108.96,5.35-6.32,20.51-20,27.94-9.67,8.16,11.35-10.31,33.77-17.82,42.14-10.1,11.27-21.21,15.55-25.12,30.83-3.22,12.57-8.32,51.55,13.32,50,12.92-.93,37.09-25.75,45.94-35.54,9.23-10.21,18.66-22.4,25.74-33.9-17.35-18.99,10.93-68.3,30.71-73.41,6.36-1.64,13.26,1.34,14.21,8.22,2.4,17.36-18.23,47.55-25.38,63.47,1.24.96,14.4-4.12,16.67-5.2,7.23-3.42,33.38-26.01,35.27-8.53.92,8.49-9.92,36-12.75,46.27-5.15,18.69-13.56,46.65-13.82,65.57-.1,7.55.06,14.81,8.12,9.07,16.03-11.44,52.93-69.11,60.35-88.17,5.19-13.34,7.5-27.24,14.18-40.74,5.89-11.89,21.21-36.5,36.82-32.94,16.11,3.67-2.17,31.16-7.45,37.88-10.82,13.75-25.63,21.69-31.25,38.94-6.72,20.63-5.5,62.94,26.32,43.57,22.77-13.86,43.58-43.43,59.67-64.44,15.12-55.65,22.94-115.47,42.99-169.55,4.03-10.86,20.11-50.55,31.27-53.14,18.59-4.31,10.54,23.74,7.93,33.33-10.45,38.43-33.59,75.21-50.87,110.85-6.3,39.34-23.21,82.58-27.92,121.59-.13,1.07-.73,2.7.91,2.42,5.32-13.95,24.27-47.65,40.48-48.56,5.07-.28,8.76,2.82,10.62,7.19,4.9,11.54-3.99,29.56-11.42,38.81-2.9,3.61-19.87,18.17-20.22,19.54-.95,3.7,4.26,8.6,7.77,9.25,16.72,3.13,53.12-28.97,64.41-40.94,17.13-18.16,17.01-24.4,26.26-45.96,4.99-11.61,13.68-27.41,23.58-35.42,12.57-10.17,26-7.6,22.18,10.97-3.34,16.2-26.77,34.49-37.48,45.94-9.04,9.66-12.12,37.84-8.4,50.17,7.35,24.42,27.65,9.21,40.02-1.31,19.75-16.81,36.47-39.38,51.4-60.5l22.89-101.68-109.47,2.07c-7.11-.91-6.68-11.26,2.06-12.27,10.12-1.17,25.73-.7,36.63-1.04,24.64-.75,49.25-.33,73.91-1.41l17.73-68.71c3.21-7.35,13.06-4.18,11.75,3.52l-16.31,64.6c10.34-.19,20.74.26,31.08.05,48.38-1,97.12-3.07,145.56-1.1,7.2.29,19.52.75,26.17,2.33,5.66,1.35,11.74,3.94,8.4,10.93-2.71,5.66-10.86.76-15.39.12-3.8-.53-10.11-.99-14.08-1.19-45.35-2.23-94.03.25-139.45,1.1-15.06.28-30.16-.41-45.2.09-26.59,112.89-52.18,226.23-70.38,340.9,10.51,1.85,2.13,20.67-4.03,22.54-14.23,4.3-7.96-25.2-7.01-32.48,8.55-65.87,26.15-130.52,37.51-195.87-14.28,15.3-27.12,32.41-44.44,44.56-15.32,10.75-37.17,16.21-48-3.57-1.18-2.15-5.27-13.28-5.27-15.07v-17.79ZM661.36,50.93v1.02c.66-.34.66-.68,0-1.02ZM633.38,122.1l8.31-15.58c6.98-17.57,15.87-34.72,19.15-53.56-14.11,19.94-21.43,45.59-27.46,69.14ZM633.36,125.15c.73-1.43-.64-2.71-1-2.02-.73,1.43.64,2.71,1,2.02ZM385.01,247.16c2.89-3.02,5.27-7.78,7.29-11.52,6.68-12.37,13.59-25.48,16.63-39.3-15.1,10.83-29.07,31.46-23.92,50.81ZM726,238.01c7.53-6.58,15.37-15.61,17.81-25.4-7.7,6.39-15.01,15.75-17.81,25.4ZM322.9,213.61c-1.8-2.31-19.03,21.53-17.81,25.4,3.45-2.67,20.12-22.44,17.81-25.4ZM533.6,213.61c-1.8-2.31-19.03,21.53-17.81,25.4,3.45-2.67,20.12-22.44,17.81-25.4ZM633.36,265.47c-2.54-2.78-14.86,14.17-16.09,15.94-1.88,2.71-15.61,25.52-14.43,26.75,2.44-.48,5.25-2.96,7.13-4.56,11.29-9.57,22.15-22.85,23.39-38.14ZM581.44,287.83c.73-1.43-.64-2.71-1-2.02-.73,1.43.64,2.71,1,2.02ZM602.32,309.18v1.02c.66-.34.66-.68,0-1.02Z"/>
      <path class="cls-1" d="M1229.1,46.6c-1.81-1.9-1.65-6.57.04-8.6,1.86-2.25,19.05-10.72,23.42-13.7,2-1.36,11.34-8.12,11.89-9.48.45-2.45-1.13-1.21-2.56-1.47-10.02-1.82-25.02.61-35.44,2.16-38.89,5.79-76.66,18.57-113.7,31.04l-48.8,224.52c9.46-1.9,18.75-4.66,28.29-6.3,8.92-1.53,34.43-5.36,41.98-2.92,5.55,1.79,5.41,10.61-.6,11.73-2.98.55-6.89-.23-10.14.04-21.25,1.77-42.05,5.31-62.48,11.3-11.96,60.5-26.34,120.73-34.73,181.87,4.94-4.53,13.27-1.84,12.04,5.33-.37,2.16-8.32,17.43-10.01,19.57-5.54,7.02-14.23,6.02-15.29-3.02-2.9-24.74,9.74-77.82,14.76-104.26,5.97-31.45,12.79-62.82,19.85-94.04-21.22,6.57-41.37,17.42-59.75,29.78-4.37,2.94-18.61,15.14-21.62,16.08-4.82,1.5-9.07-2.07-8.19-7.16.6-3.48,14.85-13.63,18.44-16.2,22.73-16.28,48.19-27.99,74.21-37.96l47.81-223.96c-51.02,19.18-101.03,41.56-146.52,71.72-4.67,2.25-10.36-1.66-8.81-6.67,1.18-3.79,12.17-10.13,15.97-12.6,43.41-28.3,93.74-48.06,141.98-66.61,4.69-6.77.59-28.28,13.98-24.26,6.2,1.86.11,14.63,1.24,19.12,28.31-8.92,56.67-18.05,85.8-24.1,16.46-3.42,50.22-10.54,65.56-6.13,12.81,3.68,12.52,13.42,4.84,22.56-4.34,5.16-33.61,25.06-39.01,24.66-.72-.05-3.99-1.52-4.47-2.02Z"/>
      <path class="cls-1" d="M814.55,559.3v-68.12h78.89c5.15,0,14.95,9.01,16.32,14.2,1.29,4.91,1.2,30.41.5,36.15s-6.24,12.25-11.54,14.9c-.95.47-6.92,2.87-7.31,2.87h-76.85ZM832.87,543.03h53.44c.58,0,4.28-4.14,4.56-5.61.7-3.64.6-20.46.07-24.43-.32-2.41-3.59-6.56-5.65-6.56h-52.42v36.6Z"/>
      <path class="cls-1" d="M117.3,515.58h-19.34c-.62,0,1.75-7.76-6.67-9.09-13.02-2.07-31.7,1.05-45.29.4-2.14,1.08-4.53,2.64-5.01,5.16-.76,4.03-.53,18.91-.09,23.42.38,3.89,1.86,6.13,5.68,7.54,14.11-.94,29.91,1.33,43.79.07,9.87-.9,6.95-8.18,7.59-8.18h19.34c1.96,13.97-7.28,23.27-20.83,24.44-10.94.94-50.95,1.43-60.03-1.12-5.83-1.64-12.04-6.68-13.87-12.58-1.62-5.23-1.81-34.73-.52-40.29,1.4-6.03,8.75-12.26,14.59-13.9,10.06-2.82,44.02-2.08,55.77-1.33,15.51.99,27.21,8.29,24.89,25.47Z"/>
      <path class="cls-1" d="M1240.03,499.31c-.63,3.1,1.57,14.05-1.67,15.11l-60.99,1.1c-1.22,1.01-2.15,2.02-2.46,3.65-.78,4.19-1.44,24.88,4.55,24.88h44.28v-7.12h-20.36c.3-2.2-1.03-14.23,1.53-14.23h35.63c.11,0,1.53,1.42,1.53,1.53v35.08h-69.73c-4.87,0-13.8-8.5-15.08-13.4-1.45-5.56-1.41-28.54.26-33.94,1.38-4.47,9.19-12.65,13.8-12.65h68.71Z"/>
      <path class="cls-1" d="M1098.54,518.63h-17.3c-.22,0,.02-4.07-1.53-4.07h-36.64c-1.87,0-2.95,6.15,2.06,7.09,14.84,2.79,41.34-6.17,52.24,6.79,10.29,12.23,1.09,28.97-13.7,30.74-9.48,1.14-35.23,1.25-44.59.03-9.95-1.3-17.42-9.2-17.9-19.23h17.3c.24,0,.96,4.07,2.54,4.07h40.72c1.66,0,3.54-6.65-2.26-7.91-12.15-2.62-38.73,3.29-48.48-2.41-15.55-9.1-10.36-31.91,8.08-34.33,8.59-1.13,35.06-1.17,43.59,0,8.66,1.19,17.73,9.95,15.87,19.23Z"/>
      <polygon class="cls-1" points="735.16 499.31 735.16 514.56 680.19 514.56 680.19 521.68 728.03 521.68 728.03 535.92 680.19 535.92 680.19 544.05 735.16 544.05 735.16 559.3 661.87 559.3 661.87 499.31 735.16 499.31"/>
      <path class="cls-1" d="M1002.86,499.31v15.25h-55.98v7.12h48.86v14.23h-47.33c-1.96,0-1.62,6.49-1.53,8.13h55.98v15.25h-73.29v-59.99h73.29Z"/>
      <path class="cls-1" d="M309.68,499.31v15.25h-55.98v7.12h48.86v14.23h-47.33c-1.96,0-1.62,6.49-1.53,8.13h55.98v15.25h-73.29v-59.99h73.29Z"/>
      <path class="cls-1" d="M1436.48,499.31v15.25h-55.98v7.12h48.86v14.23h-47.33c-1.96,0-1.62,6.49-1.53,8.13h55.98v15.25h-73.29v-59.99h73.29Z"/>
      <path class="cls-1" d="M1518.42,499.31c15.84,2.62,22.32,25.32,8.14,34.56-1.17,2.22-7.99,2.18-7.65,4.6.49,3.5,15.65,15.95,17.33,20.83h-20.87c-1.23,0-13.07-16-15.81-18.82-.63-.65-.91-1.64-.98-2.53h-25.45v21.35h-18.32v-59.99h63.62ZM1512.31,513.55h-39.19v10.17h40.21c4.12,0,5.31-8.82-1.02-10.17Z"/>
      <path class="cls-1" d="M199.24,499.31c15.82,2.62,22.85,25.28,8.14,34.56-1.17,2.22-7.99,2.18-7.65,4.6.49,3.48,15.93,15.92,17.33,20.83h-19.85c-2.02,0-16.91-21.35-18.32-21.35h-24.94v21.35h-17.3v-59.99h62.6ZM153.94,523.72h41.22c2.86,0,4.76-10.17-2.04-10.17h-39.19v10.17Z"/>
      <path class="cls-1" d="M1326.55,537.95v-38.64h17.3v59.99h-16.8c-3.1,0-41.45-35.32-48.35-38.64v38.64h-18.32v-59.99h17.81c1.99,0,26.08,23.02,30.56,25.39l17.79,13.24Z"/>
      <path class="cls-1" d="M325.96,559.3c-.37-1.57.63-2.21,1.23-3.35,9.88-18.88,25.43-36.82,35.32-55.98,1.89-1.69,14.68-.3,18.22-.45,10.07,17.29,21.74,33.65,32.18,50.71,1.69,2.76,4.02,5.92,4.67,9.06h-19.34c-.81,0-5.67-12.95-8.62-13.3-4.29-.5-32.53-.62-35.47.27-3.57,1.08-8.05,13.03-8.84,13.03h-19.34ZM380.93,531.85l-7.29-12.55c-.81-.96-.72-1.71-2.37-1.7-.83,0-7.6,12.42-8.66,14.25h18.32Z"/>
      <path class="cls-1" d="M575.35,499.31l24.94,41.67c4.56-4.23,23-41.67,25.45-41.67h19.85l-34.55,58.52c-3.13,3.22-15.16.6-19.95,1.54l-36.09-60.06h20.36Z"/>
      <polygon class="cls-1" points="502.06 499.31 502.06 514.56 471.52 514.56 471.52 559.3 454.22 559.3 454.22 514.56 423.68 514.56 423.68 499.31 502.06 499.31"/>
      <rect class="cls-1" x="1119.92" y="499.31" width="18.32" height="59.99"/>
      <rect class="cls-1" x="520.38" y="499.31" width="18.32" height="59.99"/>
      <path class="cls-1" d="M602.32,309.18c.66.34.66.68,0,1.02v-1.02Z"/>
      <g>
        <path class="cls-1" d="M1249.2,300.03l9.75-17.19c6.13-9.9,25.18-39.25,39.35-27.56,11.79,9.73-2.89,36.18-10.46,45.24-2.98,3.56-17.08,15.28-17.79,16.84-1.99,4.36,3.21,9.54,7.22,10.1,11.49,1.62,33.75-14.16,42.64-21.35,8.93-7.22,19.93-17.8,27.53-26.39,2.76-3.12,18.03-22.37,17.6-24.74-.19-1.03-1.89-2.35-2.36-3.73-4.5-12.99-2.5-24.13,3.4-36.28,5.01-10.31,29.01-43.83,41.95-29.34,5.46,6.12,1.44,15.82-.78,22.68-5.23,16.18-14.88,30.49-21.65,45.98,4.02-.61,7.76-1.7,11.55-3.2,8.72-3.44,23.26-15.5,29.9-16.9,6.17-1.3,9.62,1.41,10.52,7.41-6.92,26.68-16.51,52.58-22.14,79.61-2.92,14.05-6.3,28.59-3.36,42.9,1.81.35,2.93-.5,4.41-1.19,15.14-7.05,54.76-71.58,61.93-88.62,6.08-14.45,8.11-29.32,15.93-44.07,5.71-10.76,22.05-36.44,36.79-30.31,12.11,5.03.23,24.73-4.24,31.31-17.52,25.81-40.41,31.2-39.54,69.27.21,9.17,5.31,25.15,16.72,24.89,15.48-.36,45.63-34.21,55.56-46.21,3.87-4.67,19.28-27.31,22.98-27.94,3.19-.55,7.11,1.14,7.61,4.64.56,3.91-5.85,11.56-8.34,15.02-12.44,17.29-50.84,62.92-71.68,65.66-22.55,2.97-32.27-10.94-34.52-31.43-13.59,20.29-26.44,46.62-45.29,62.54-22.95,19.37-32.97,4.8-31.56-20.34,1.77-31.53,15.05-65.31,23.38-95.6-14.72,8.01-30.53,19.2-48.14,12.65-10.86,16.44-24.69,32.17-39.36,45.33-17.43,15.64-57.94,47.22-75.84,17.78l-3.55-10.16c-10.51,23.71-17.53,48.67-26.03,73.14-9.5,6.78-12.15-1.78-10.5-10.49l20.21-93.68c-.95-.7-2.44,1.36-3.06,2.02-10.53,11.18-20.74,22.98-34.27,30.84-19.2,11.15-33.76,7.07-35.92-16.59-1.05-11.58,2.92-39.89,7.13-50.8,2.57-6.66,10.97-5.87,12.18,1.09-2.51,15.45-8.66,32.96-7.1,48.7.89,9,2.63,13.63,12.18,10.15,14.62-5.33,51.8-45.45,56.74-60.24,10.33-42.43,18.33-85.63,29.88-127.75,6.41-23.35,19.42-66.01,35.02-83.97,11.32-13.02,21.1-8.99,19.84,8.64-1.97,27.61-27.3,75.54-40.17,101.2-4.12,8.21-11.21,18.15-14.25,26.44-9.95,27.08-16.94,71.12-23.45,100.62-1.71,7.73-3.78,15.5-4.56,23.39ZM1289.9,121.08c2.11.45,2.37-1.02,3.25-2.33,3.73-5.53,8.68-18.45,11.47-25.14,5.55-13.28,11.25-27.47,13.76-41.65-14.78,20.28-20.2,45.78-28.49,69.13ZM1373.38,246.14c1.81.39,2.01-.53,2.89-1.68,4.76-6.31,13.01-23.75,16.3-31.5,2.27-5.33,4.63-10.8,5.22-16.63-14.62,10.29-28.73,31.05-24.41,49.82ZM1523,213.62c-1.19-1.2-7.67,6.08-8.56,7.2-3.66,4.57-7.88,11.56-9.26,17.18,3.23-1.6,19.68-22.49,17.82-24.38ZM1259.37,309.18l10.71-8.1c8.04-7.68,16.1-16.54,19.29-27.5.47-1.63,2.45-7.59.01-8.1-7.31,1.05-31.84,41.75-30.01,43.71ZM1258.86,310.2v1.02c.66-.34.66-.68,0-1.02Z"/>
        <path class="cls-1" d="M1180.32,214.97c3.59-3.59,13.23-6.18,14.69.39,3.73,16.75-29.48,14.4-14.69-.39Z"/>
        <path class="cls-1" d="M1258.86,310.2c.66.34.66.68,0,1.02v-1.02Z"/>
      </g>
      <path class="cls-1" d="M111.24,19.36c1.11,1.1,9.36-.93,11.62-1.01,34.43-1.22,77.58,5.64,96.4,38,21.84,37.53-4.39,81.64-27.65,111.49,36.84,7.2,60.34,37.54,65.01,73.85,13.18,102.46-86.43,184-180.68,194.45-6.63.73-24.06,4.52-20.53-7.28,1.58-5.3,14.45-4.16,19.51-4.93,56.83-8.61,109.1-33.41,141.94-81.9,26.3-38.83,43.55-101.89,9.32-141.11-8.37-9.59-29.33-22.21-42.24-21.98-5.34.09-11.52,9.1-15.74,12.82-29.62,26.09-65.7,51.72-103.87,62.99-14.49,70.31-29.18,140.84-38.64,212.02,4.93-4.54,13.29-1.82,12.04,5.34-.5,2.85-8.46,18.7-10.59,21.03-6.11,6.69-13.46,2.9-14.61-5.62-2-14.84,2.96-40.14,5.32-55.51,9.24-60.18,22.91-119.75,34.09-179.57-7.53-12.41,2.42-23.15,7.04-34.55,11.42-60.84,25.52-121.21,35.9-182.22C48.11,47.91,10.44,83.63,12.41,134.86c.27,6.88,3.26,16.14,3.19,22.34s-7.16,8.79-10.76,4.53c-2.02-2.4-4.41-20.66-4.65-24.84C-2.97,80.9,32.27,44.24,82.14,26.49c2.8-1,14.54-3.41,15.58-4.26,2.88-2.37-1.7-10.11,7.88-10.03,7.34.06,4.53,6.06,5.63,7.16ZM75.57,198.36c27.41-24.42,64.82-34.07,101.1-32.7,21.36-23.98,48-65.1,34.45-98.13-13.85-33.76-71.12-42.38-102.52-33.93l-33.03,164.76ZM164.12,178.03c-26.48.61-56.84,9.92-77.37,26.92-12.18,10.08-18.38,19.67-20.32,35.61,18.78-5.06,36.53-15.95,52.82-26.53,15.84-10.3,31.92-22.25,44.87-36Z"/>
      <g>
        <path class="cls-1" d="M633.36,125.15c-.35.69-1.73-.6-1-2.02.35-.69,1.73.6,1,2.02Z"/>
        <path class="cls-1" d="M581.44,287.83c-.35.69-1.73-.6-1-2.02.35-.69,1.73.6,1,2.02Z"/>
        <path class="cls-1" d="M661.36,50.93c.66.34.66.68,0,1.02v-1.02Z"/>
      </g>
    </g>
  </g>
</svg>