<?xml version="1.0" encoding="UTF-8"?>
<svg id="Layer_1" xmlns="http://www.w3.org/2000/svg" version="1.1" viewBox="0 0 24 24">
  <!-- Generator: Adobe Illustrator 30.0.0, SVG Export Plug-In . SVG Version: 2.1.1 Build 123)  -->
  <defs>
    <style>
      .st0 {
        fill: #b4e8c9;
      }
    </style>
  </defs>
  <path class="st0" d="M4.2.3C1.9.3,0,2.2,0,4.5v14.9c0,2.4,1.9,4.2,4.2,4.2h15.5c2.4,0,4.2-1.9,4.2-4.2V4.5c0-2.4-1.9-4.3-4.2-4.3H4.2ZM15.6,5.4h2s0,0,.1,0v9.5c0,.2,0,.4,0,.6,0,.2,0,.4,0,.6,0,0,0,.1-.1.2-.5.2-1.1.4-1.6.5-.5,0-1,.1-1.5.1-.7,0-1.5-.1-2.2-.5-.6-.3-1.1-.8-1.5-1.4-.4-.6-.6-1.4-.6-2.3,0-.7.2-1.5.6-2.1.4-.6.9-1.2,1.6-1.6.7-.4,1.5-.6,2.5-.6s.1,0,.2,0,.2,0,.3,0v-3.2c0,0,0-.1,0-.1ZM6.6,6.3h1.9c0,0,.1,0,.1,0,0,0,0,0,0,0v10.3c0,.1,0,.2-.1.2h-2c0,0-.1,0-.1-.2V6.4c0,0,0-.1.1-.1ZM14.9,10.5c-.4,0-.8,0-1.1.3-.3.2-.6.4-.9.7s-.3.8-.3,1.3c0,.4,0,.7.2,1,.1.3.2.5.4.7.2.2.4.3.7.4.3,0,.6.1.8.1s.3,0,.4,0c.1,0,.2,0,.4,0v-4.4c0,0-.2,0-.3,0-.1,0-.2,0-.3,0Z"/>
</svg>