<?xml version="1.0" encoding="UTF-8"?>
<svg id="Layer_1" xmlns="http://www.w3.org/2000/svg" version="1.1" viewBox="0 0 24 24">
  <!-- Generator: Adobe Illustrator 30.0.0, SVG Export Plug-In . SVG Version: 2.1.1 Build 123)  -->
  <defs>
    <style>
      .st0 {
        fill: #b4e8c9;
      }
    </style>
  </defs>
  <path class="st0" d="M15.9,9h-4.6V0h4.6C18.3,0,20.3,2,20.3,4.5s-2,4.5-4.5,4.5ZM12.7,7.5h3.1c1.7,0,3-1.4,3-3s-1.4-3-3-3h-3.1s0,6,0,6ZM12.7,9h-4.6c-2.5,0-4.5-2-4.5-4.5S5.7,0,8.1,0h4.6v9h0ZM8.1,1.5c-1.7,0-3,1.4-3,3s1.4,3,3,3h3.1V1.5s-3.1,0-3.1,0ZM12.7,16.5h-4.6c-2.5,0-4.5-2-4.5-4.5s2-4.5,4.5-4.5h4.6v9h0ZM8.1,9c-1.7,0-3,1.4-3,3s1.4,3,3,3h3.1v-6h-3.1ZM8.2,24c-2.5,0-4.5-2-4.5-4.5s2-4.5,4.5-4.5h4.6v4.4c0,2.5-2,4.5-4.6,4.5ZM8.1,16.5c-1.7,0-3,1.4-3,3,0,1.7,1.4,3,3,3s3.1-1.4,3.1-3.1v-3h-3.1ZM15.9,16.5h0c-2.5,0-4.5-2-4.5-4.5s2-4.5,4.5-4.5h0c2.5,0,4.5,2,4.5,4.5s-2,4.5-4.5,4.5ZM15.8,9c-1.7,0-3,1.4-3,3s1.4,3,3,3h0c1.7,0,3-1.4,3-3s-1.4-3-3-3c0,0,0,0,0,0Z"/>
</svg>