<?xml version="1.0" encoding="UTF-8"?>
<svg id="Layer_1" xmlns="http://www.w3.org/2000/svg" version="1.1" viewBox="0 0 800 800">
  <!-- Generator: Adobe Illustrator 30.0.0, SVG Export Plug-In . SVG Version: 2.1.1 Build 123)  -->
  <defs>
    <style>
      .st0 {
        fill: #a5e0c2;
      }
    </style>
  </defs>
  <g id="_x37_935ec95c421cee6d86eb22ecd116478">
    <path class="st0" d="M323,373.2s75.6-5.6,75.6-94.2-61.8-131.9-140.1-131.9H.8v495.2h257.7s157.3,5,157.3-146.2c0,0,6.9-123-92.7-123ZM239.9,235.2h18.5s35,0,35,51.5-20.6,59-44,59H114.3v-110.5h125.6ZM251.2,554.3H114.3v-132.3h144.1s52.2-.7,52.2,68-39,63.9-59.5,64.3ZM625.5,273.2c-190.4,0-190.3,190.3-190.3,190.3,0,0-13.1,189.3,190.3,189.3,0,0,169.4,9.7,169.4-131.7h-87.1s2.9,53.2-79.4,53.2c0,0-87.2,5.8-87.2-86.1h256.6s28.1-214.9-172.3-214.9ZM540.3,422s10.6-76.3,87.1-76.3,75.5,76.3,75.5,76.3h-162.7ZM723.3,237.3h-204.3v-61h204.3v61Z"/>
  </g>
</svg>