<?xml version="1.0" encoding="UTF-8"?>
<svg id="Layer_1" xmlns="http://www.w3.org/2000/svg" version="1.1" viewBox="0 0 24 24">
  <!-- Generator: Adobe Illustrator 30.0.0, SVG Export Plug-In . SVG Version: 2.1.1 Build 123)  -->
  <defs>
    <style>
      .st0 {
        fill: #b4e8c9;
      }
    </style>
  </defs>
  <path class="st0" d="M24,2.3v19.3c0,1.3-1,2.3-2.3,2.3H2.3c-1.3,0-2.3-1-2.3-2.3V2.3C0,1,1,0,2.3,0h19.3c1.3,0,2.3,1,2.3,2.3ZM1.8,21.3c0,.5.4.9.9.9h8.2l-4.3-7.4L14.2,1.8h-3.5L1.8,17.2v4.1ZM13.2,14.4l-2.7-4.7-1.8,3.1c-.3.5-.1,1.2.4,1.5.2,0,.4.1.6.1h3.5ZM22.2,21.3v-6.1H7.8l4,7h9.5c.5,0,.9-.4.9-.9ZM21.3,1.8h-6.2l-4.1,7.2,3.2,5.5h8.1V2.7c0-.5-.4-.9-.9-.9Z"/>
</svg>