<?xml version="1.0" encoding="UTF-8"?>
<svg xmlns="http://www.w3.org/2000/svg" version="1.1" viewBox="0 0 800 800">
  <!-- Generator: Adobe Illustrator 30.0.0, SVG Export Plug-In . SVG Version: 2.1.1 Build 123)  -->
  <defs>
    <style>
      .st0 {
        fill: #a5e0c2;
      }
    </style>
  </defs>
  <g id="Layer_1" focusable="false">
    <path class="st0" d="M587.5,433.1c-31.5,0-61-13.3-87.8-35.1l6.5-30.7.2-1.2c5.9-32.7,24.3-87.4,81.1-87.4s77.2,34.6,77.2,77.2c0,42.5-34.6,77.2-77.3,77.2h0ZM587.5,200.5c-72.5,0-128.9,47.1-151.7,124.7-34.9-52.4-61.4-115.3-76.8-168.3h-78.2v203.2c0,40.2-32.6,72.7-72.8,72.8-40.1,0-72.7-32.7-72.7-72.8v-203.2H57.1v203.2c0,83.3,67.7,151.5,150.9,151.5s150.9-68.3,150.9-151.5v-34c15.1,31.6,33.8,63.7,56.4,92l-47.8,224.9h79.9l34.7-163.1c30.4,19.4,65.3,31.7,105.3,31.7,85.7,0,155.4-70.1,155.4-155.7s-69.7-155.4-155.4-155.4h0Z"/>
  </g>
</svg>