<?xml version="1.0" encoding="UTF-8"?>
<svg id="Layer_2" xmlns="http://www.w3.org/2000/svg" version="1.1" viewBox="0 0 1590.2 560.1">
  <!-- Generator: Adobe Illustrator 30.0.0, SVG Export Plug-In . SVG Version: 2.1.1 Build 123)  -->
  <defs>
    <style>
      .st0 {
        fill: #a5e0c2;
      }
    </style>
  </defs>
  <g id="Layer_1-2">
    <g>
      <path class="st0" d="M696.5,290.9c-13.9,14.1-29.7,30.1-47.2,39.8-14.5,8.1-34.7,15.6-46.3-.9l-5.2-12.5c-2.4,8.2-6.3,15.9-9.2,23.9-2.6,7.2-14.8,48.3-17.7,50.4-6,4.3-11.8-2.1-9.7-8.7l19.3-94.1c-1.6-.4-2.1.6-3.1,1.5-18.9,17.5-37.9,50.4-68.6,46.2-14.1-1.9-20.3-18.3-22.5-30.4-14.1,21.2-27.8,48.7-48.4,64.5-12.1,9.2-25.5,7.7-27.4-9.1-3.9-34.4,14.4-76.1,22.4-109.3-6.8,2.9-12.8,7.6-19.7,10.3-9.5,3.8-16.9,5.3-27,2-15.7,21.9-34.8,47-56.8,62.7-16.8,12-39.3,15.8-49.4-6.2-12.6-27.6,7.7-86.5,26.7-109,5.4-6.3,20.5-20,27.9-9.7,8.2,11.4-10.3,33.8-17.8,42.1-10.1,11.3-21.2,15.5-25.1,30.8-3.2,12.6-8.3,51.5,13.3,50,12.9-.9,37.1-25.8,45.9-35.5,9.2-10.2,18.7-22.4,25.7-33.9-17.4-19,10.9-68.3,30.7-73.4,6.4-1.6,13.3,1.3,14.2,8.2,2.4,17.4-18.2,47.6-25.4,63.5,1.2,1,14.4-4.1,16.7-5.2,7.2-3.4,33.4-26,35.3-8.5.9,8.5-9.9,36-12.8,46.3-5.1,18.7-13.6,46.6-13.8,65.6-.1,7.5,0,14.8,8.1,9.1,16-11.4,52.9-69.1,60.4-88.2,5.2-13.3,7.5-27.2,14.2-40.7,5.9-11.9,21.2-36.5,36.8-32.9,16.1,3.7-2.2,31.2-7.5,37.9-10.8,13.8-25.6,21.7-31.2,38.9-6.7,20.6-5.5,62.9,26.3,43.6,22.8-13.9,43.6-43.4,59.7-64.4,15.1-55.6,22.9-115.5,43-169.6,4-10.9,20.1-50.5,31.3-53.1,18.6-4.3,10.5,23.7,7.9,33.3-10.5,38.4-33.6,75.2-50.9,110.8-6.3,39.3-23.2,82.6-27.9,121.6-.1,1.1-.7,2.7.9,2.4,5.3-14,24.3-47.6,40.5-48.6,5.1-.3,8.8,2.8,10.6,7.2,4.9,11.5-4,29.6-11.4,38.8-2.9,3.6-19.9,18.2-20.2,19.5-1,3.7,4.3,8.6,7.8,9.2,16.7,3.1,53.1-29,64.4-40.9,17.1-18.2,17-24.4,26.3-46,5-11.6,13.7-27.4,23.6-35.4,12.6-10.2,26-7.6,22.2,11-3.3,16.2-26.8,34.5-37.5,45.9-9,9.7-12.1,37.8-8.4,50.2,7.3,24.4,27.7,9.2,40-1.3,19.8-16.8,36.5-39.4,51.4-60.5l22.9-101.7-109.5,2.1c-7.1-.9-6.7-11.3,2.1-12.3,10.1-1.2,25.7-.7,36.6-1,24.6-.8,49.2-.3,73.9-1.4l17.7-68.7c3.2-7.3,13.1-4.2,11.8,3.5l-16.3,64.6c10.3-.2,20.7.3,31.1,0,48.4-1,97.1-3.1,145.6-1.1,7.2.3,19.5.8,26.2,2.3,5.7,1.4,11.7,3.9,8.4,10.9-2.7,5.7-10.9.8-15.4.1-3.8-.5-10.1-1-14.1-1.2-45.3-2.2-94,.2-139.5,1.1-15.1.3-30.2-.4-45.2,0-26.6,112.9-52.2,226.2-70.4,340.9,10.5,1.9,2.1,20.7-4,22.5-14.2,4.3-8-25.2-7-32.5,8.5-65.9,26.2-130.5,37.5-195.9-14.3,15.3-27.1,32.4-44.4,44.6-15.3,10.8-37.2,16.2-48-3.6-1.2-2.1-5.3-13.3-5.3-15.1v-17.8h0ZM661.4,50.9v1c.7-.3.7-.7,0-1ZM633.4,122.1l8.3-15.6c7-17.6,15.9-34.7,19.2-53.6-14.1,19.9-21.4,45.6-27.5,69.1ZM633.4,125.2c.7-1.4-.6-2.7-1-2-.7,1.4.6,2.7,1,2ZM385,247.2c2.9-3,5.3-7.8,7.3-11.5,6.7-12.4,13.6-25.5,16.6-39.3-15.1,10.8-29.1,31.5-23.9,50.8h0ZM726,238c7.5-6.6,15.4-15.6,17.8-25.4-7.7,6.4-15,15.8-17.8,25.4ZM322.9,213.6c-1.8-2.3-19,21.5-17.8,25.4,3.5-2.7,20.1-22.4,17.8-25.4ZM533.6,213.6c-1.8-2.3-19,21.5-17.8,25.4,3.5-2.7,20.1-22.4,17.8-25.4ZM633.4,265.5c-2.5-2.8-14.9,14.2-16.1,15.9-1.9,2.7-15.6,25.5-14.4,26.8,2.4-.5,5.2-3,7.1-4.6,11.3-9.6,22.2-22.9,23.4-38.1h0ZM581.4,287.8c.7-1.4-.6-2.7-1-2-.7,1.4.6,2.7,1,2ZM602.3,309.2v1c.7-.3.7-.7,0-1Z"/>
      <path class="st0" d="M1229.1,46.6c-1.8-1.9-1.7-6.6,0-8.6,1.9-2.2,19.1-10.7,23.4-13.7,2-1.4,11.3-8.1,11.9-9.5.4-2.4-1.1-1.2-2.6-1.5-10-1.8-25,.6-35.4,2.2-38.9,5.8-76.7,18.6-113.7,31l-48.8,224.5c9.5-1.9,18.8-4.7,28.3-6.3,8.9-1.5,34.4-5.4,42-2.9,5.6,1.8,5.4,10.6-.6,11.7-3,.5-6.9-.2-10.1,0-21.2,1.8-42.1,5.3-62.5,11.3-12,60.5-26.3,120.7-34.7,181.9,4.9-4.5,13.3-1.8,12,5.3-.4,2.2-8.3,17.4-10,19.6-5.5,7-14.2,6-15.3-3-2.9-24.7,9.7-77.8,14.8-104.3,6-31.5,12.8-62.8,19.8-94-21.2,6.6-41.4,17.4-59.8,29.8-4.4,2.9-18.6,15.1-21.6,16.1-4.8,1.5-9.1-2.1-8.2-7.2.6-3.5,14.8-13.6,18.4-16.2,22.7-16.3,48.2-28,74.2-38l47.8-224c-51,19.2-101,41.6-146.5,71.7-4.7,2.2-10.4-1.7-8.8-6.7,1.2-3.8,12.2-10.1,16-12.6,43.4-28.3,93.7-48.1,142-66.6,4.7-6.8.6-28.3,14-24.3,6.2,1.9.1,14.6,1.2,19.1,28.3-8.9,56.7-18,85.8-24.1,16.5-3.4,50.2-10.5,65.6-6.1,12.8,3.7,12.5,13.4,4.8,22.6-4.3,5.2-33.6,25.1-39,24.7-.7,0-4-1.5-4.5-2h0Z"/>
      <path class="st0" d="M814.5,559.3v-68.1h78.9c5.2,0,15,9,16.3,14.2,1.3,4.9,1.2,30.4.5,36.2s-6.2,12.2-11.5,14.9c-1,.5-6.9,2.9-7.3,2.9h-76.9ZM832.9,543h53.4c.6,0,4.3-4.1,4.6-5.6.7-3.6.6-20.5,0-24.4-.3-2.4-3.6-6.6-5.7-6.6h-52.4v36.6Z"/>
      <path class="st0" d="M117.3,515.6h-19.3c-.6,0,1.8-7.8-6.7-9.1-13-2.1-31.7,1-45.3.4-2.1,1.1-4.5,2.6-5,5.2-.8,4-.5,18.9,0,23.4.4,3.9,1.9,6.1,5.7,7.5,14.1-.9,29.9,1.3,43.8,0,9.9-.9,6.9-8.2,7.6-8.2h19.3c2,14-7.3,23.3-20.8,24.4-10.9.9-51,1.4-60-1.1-5.8-1.6-12-6.7-13.9-12.6-1.6-5.2-1.8-34.7-.5-40.3,1.4-6,8.8-12.3,14.6-13.9,10.1-2.8,44-2.1,55.8-1.3,15.5,1,27.2,8.3,24.9,25.5h0Z"/>
      <path class="st0" d="M1240,499.3c-.6,3.1,1.6,14-1.7,15.1l-61,1.1c-1.2,1-2.2,2-2.5,3.7-.8,4.2-1.4,24.9,4.6,24.9h44.3v-7.1h-20.4c.3-2.2-1-14.2,1.5-14.2h35.6c.1,0,1.5,1.4,1.5,1.5v35.1h-69.7c-4.9,0-13.8-8.5-15.1-13.4-1.4-5.6-1.4-28.5.3-33.9,1.4-4.5,9.2-12.6,13.8-12.6h68.7,0Z"/>
      <path class="st0" d="M1098.5,518.6h-17.3c-.2,0,0-4.1-1.5-4.1h-36.6c-1.9,0-2.9,6.2,2.1,7.1,14.8,2.8,41.3-6.2,52.2,6.8,10.3,12.2,1.1,29-13.7,30.7-9.5,1.1-35.2,1.2-44.6,0-9.9-1.3-17.4-9.2-17.9-19.2h17.3c.2,0,1,4.1,2.5,4.1h40.7c1.7,0,3.5-6.7-2.3-7.9-12.2-2.6-38.7,3.3-48.5-2.4-15.5-9.1-10.4-31.9,8.1-34.3,8.6-1.1,35.1-1.2,43.6,0,8.7,1.2,17.7,10,15.9,19.2h0Z"/>
      <polygon class="st0" points="735.2 499.3 735.2 514.6 680.2 514.6 680.2 521.7 728 521.7 728 535.9 680.2 535.9 680.2 544 735.2 544 735.2 559.3 661.9 559.3 661.9 499.3 735.2 499.3"/>
      <path class="st0" d="M1002.9,499.3v15.2h-56v7.1h48.9v14.2h-47.3c-2,0-1.6,6.5-1.5,8.1h56v15.2h-73.3v-60h73.3Z"/>
      <path class="st0" d="M309.7,499.3v15.2h-56v7.1h48.9v14.2h-47.3c-2,0-1.6,6.5-1.5,8.1h56v15.2h-73.3v-60h73.3Z"/>
      <path class="st0" d="M1436.5,499.3v15.2h-56v7.1h48.9v14.2h-47.3c-2,0-1.6,6.5-1.5,8.1h56v15.2h-73.3v-60h73.3Z"/>
      <path class="st0" d="M1518.4,499.3c15.8,2.6,22.3,25.3,8.1,34.6-1.2,2.2-8,2.2-7.7,4.6.5,3.5,15.7,16,17.3,20.8h-20.9c-1.2,0-13.1-16-15.8-18.8-.6-.7-.9-1.6-1-2.5h-25.4v21.3h-18.3v-60h63.6,0ZM1512.3,513.5h-39.2v10.2h40.2c4.1,0,5.3-8.8-1-10.2Z"/>
      <path class="st0" d="M199.2,499.3c15.8,2.6,22.9,25.3,8.1,34.6-1.2,2.2-8,2.2-7.6,4.6.5,3.5,15.9,15.9,17.3,20.8h-19.9c-2,0-16.9-21.3-18.3-21.3h-24.9v21.3h-17.3v-60h62.6,0ZM153.9,523.7h41.2c2.9,0,4.8-10.2-2-10.2h-39.2v10.2h0Z"/>
      <path class="st0" d="M1326.6,538v-38.6h17.3v60h-16.8c-3.1,0-41.4-35.3-48.3-38.6v38.6h-18.3v-60h17.8c2,0,26.1,23,30.6,25.4l17.8,13.2h0Z"/>
      <path class="st0" d="M326,559.3c-.4-1.6.6-2.2,1.2-3.3,9.9-18.9,25.4-36.8,35.3-56,1.9-1.7,14.7-.3,18.2-.5,10.1,17.3,21.7,33.6,32.2,50.7,1.7,2.8,4,5.9,4.7,9.1h-19.3c-.8,0-5.7-13-8.6-13.3-4.3-.5-32.5-.6-35.5.3-3.6,1.1-8,13-8.8,13h-19.4ZM380.9,531.8l-7.3-12.5c-.8-1-.7-1.7-2.4-1.7-.8,0-7.6,12.4-8.7,14.2h18.3Z"/>
      <path class="st0" d="M575.3,499.3l24.9,41.7c4.6-4.2,23-41.7,25.5-41.7h19.8l-34.5,58.5c-3.1,3.2-15.2.6-20,1.5l-36.1-60.1h20.4,0Z"/>
      <polygon class="st0" points="502.1 499.3 502.1 514.6 471.5 514.6 471.5 559.3 454.2 559.3 454.2 514.6 423.7 514.6 423.7 499.3 502.1 499.3"/>
      <rect class="st0" x="1119.9" y="499.3" width="18.3" height="60"/>
      <rect class="st0" x="520.4" y="499.3" width="18.3" height="60"/>
      <path class="st0" d="M602.3,309.2c.7.3.7.7,0,1v-1Z"/>
      <g>
        <path class="st0" d="M1249.2,300l9.8-17.2c6.1-9.9,25.2-39.2,39.3-27.6,11.8,9.7-2.9,36.2-10.5,45.2-3,3.6-17.1,15.3-17.8,16.8-2,4.4,3.2,9.5,7.2,10.1,11.5,1.6,33.8-14.2,42.6-21.4,8.9-7.2,19.9-17.8,27.5-26.4,2.8-3.1,18-22.4,17.6-24.7-.2-1-1.9-2.4-2.4-3.7-4.5-13-2.5-24.1,3.4-36.3,5-10.3,29-43.8,41.9-29.3,5.5,6.1,1.4,15.8-.8,22.7-5.2,16.2-14.9,30.5-21.7,46,4-.6,7.8-1.7,11.6-3.2,8.7-3.4,23.3-15.5,29.9-16.9,6.2-1.3,9.6,1.4,10.5,7.4-6.9,26.7-16.5,52.6-22.1,79.6-2.9,14-6.3,28.6-3.4,42.9,1.8.4,2.9-.5,4.4-1.2,15.1-7,54.8-71.6,61.9-88.6,6.1-14.5,8.1-29.3,15.9-44.1,5.7-10.8,22.1-36.4,36.8-30.3,12.1,5,.2,24.7-4.2,31.3-17.5,25.8-40.4,31.2-39.5,69.3.2,9.2,5.3,25.1,16.7,24.9,15.5-.4,45.6-34.2,55.6-46.2,3.9-4.7,19.3-27.3,23-27.9,3.2-.6,7.1,1.1,7.6,4.6.6,3.9-5.8,11.6-8.3,15-12.4,17.3-50.8,62.9-71.7,65.7-22.6,3-32.3-10.9-34.5-31.4-13.6,20.3-26.4,46.6-45.3,62.5-22.9,19.4-33,4.8-31.6-20.3,1.8-31.5,15.1-65.3,23.4-95.6-14.7,8-30.5,19.2-48.1,12.6-10.9,16.4-24.7,32.2-39.4,45.3-17.4,15.6-57.9,47.2-75.8,17.8l-3.6-10.2c-10.5,23.7-17.5,48.7-26,73.1-9.5,6.8-12.2-1.8-10.5-10.5l20.2-93.7c-.9-.7-2.4,1.4-3.1,2-10.5,11.2-20.7,23-34.3,30.8-19.2,11.1-33.8,7.1-35.9-16.6-1.1-11.6,2.9-39.9,7.1-50.8,2.6-6.7,11-5.9,12.2,1.1-2.5,15.4-8.7,33-7.1,48.7.9,9,2.6,13.6,12.2,10.1,14.6-5.3,51.8-45.5,56.7-60.2,10.3-42.4,18.3-85.6,29.9-127.8,6.4-23.3,19.4-66,35-84,11.3-13,21.1-9,19.8,8.6-2,27.6-27.3,75.5-40.2,101.2-4.1,8.2-11.2,18.1-14.2,26.4-9.9,27.1-16.9,71.1-23.4,100.6-1.7,7.7-3.8,15.5-4.6,23.4h0ZM1289.9,121.1c2.1.4,2.4-1,3.2-2.3,3.7-5.5,8.7-18.4,11.5-25.1,5.6-13.3,11.2-27.5,13.8-41.7-14.8,20.3-20.2,45.8-28.5,69.1h0ZM1373.4,246.1c1.8.4,2-.5,2.9-1.7,4.8-6.3,13-23.8,16.3-31.5,2.3-5.3,4.6-10.8,5.2-16.6-14.6,10.3-28.7,31.1-24.4,49.8h0ZM1523,213.6c-1.2-1.2-7.7,6.1-8.6,7.2-3.7,4.6-7.9,11.6-9.3,17.2,3.2-1.6,19.7-22.5,17.8-24.4h0ZM1259.4,309.2l10.7-8.1c8-7.7,16.1-16.5,19.3-27.5.5-1.6,2.4-7.6,0-8.1-7.3,1-31.8,41.8-30,43.7h0ZM1258.9,310.2v1c.7-.3.7-.7,0-1Z"/>
        <path class="st0" d="M1180.3,215c3.6-3.6,13.2-6.2,14.7.4,3.7,16.8-29.5,14.4-14.7-.4Z"/>
        <path class="st0" d="M1258.9,310.2c.7.3.7.7,0,1v-1Z"/>
      </g>
      <path class="st0" d="M111.2,19.4c1.1,1.1,9.4-.9,11.6-1,34.4-1.2,77.6,5.6,96.4,38,21.8,37.5-4.4,81.6-27.6,111.5,36.8,7.2,60.3,37.5,65,73.9,13.2,102.5-86.4,184-180.7,194.5-6.6.7-24.1,4.5-20.5-7.3,1.6-5.3,14.4-4.2,19.5-4.9,56.8-8.6,109.1-33.4,141.9-81.9,26.3-38.8,43.5-101.9,9.3-141.1-8.4-9.6-29.3-22.2-42.2-22-5.3,0-11.5,9.1-15.7,12.8-29.6,26.1-65.7,51.7-103.9,63-14.5,70.3-29.2,140.8-38.6,212,4.9-4.5,13.3-1.8,12,5.3-.5,2.9-8.5,18.7-10.6,21-6.1,6.7-13.5,2.9-14.6-5.6-2-14.8,3-40.1,5.3-55.5,9.2-60.2,22.9-119.8,34.1-179.6-7.5-12.4,2.4-23.1,7-34.6,11.4-60.8,25.5-121.2,35.9-182.2C48.1,47.9,10.4,83.6,12.4,134.9c.3,6.9,3.3,16.1,3.2,22.3s-7.2,8.8-10.8,4.5c-2-2.4-4.4-20.7-4.7-24.8C-3,80.9,32.3,44.2,82.1,26.5c2.8-1,14.5-3.4,15.6-4.3,2.9-2.4-1.7-10.1,7.9-10,7.3,0,4.5,6.1,5.6,7.2h0ZM75.6,198.4c27.4-24.4,64.8-34.1,101.1-32.7,21.4-24,48-65.1,34.4-98.1-13.9-33.8-71.1-42.4-102.5-33.9l-33,164.8ZM164.1,178c-26.5.6-56.8,9.9-77.4,26.9-12.2,10.1-18.4,19.7-20.3,35.6,18.8-5.1,36.5-15.9,52.8-26.5,15.8-10.3,31.9-22.2,44.9-36Z"/>
      <g>
        <path class="st0" d="M633.4,125.2c-.3.7-1.7-.6-1-2,.3-.7,1.7.6,1,2Z"/>
        <path class="st0" d="M581.4,287.8c-.3.7-1.7-.6-1-2,.3-.7,1.7.6,1,2Z"/>
        <path class="st0" d="M661.4,50.9c.7.3.7.7,0,1v-1Z"/>
      </g>
    </g>
  </g>
</svg>